General
Complete name                    : Inside Man.mkv
Format                           : Matroska
File size                        : 1.45 GiB
Duration                         : 2h 3mn
Overall bit rate                 : 1 682 Kbps

Video
ID                               : 1
Format                           : AVC
Duration                         : 2h 3mn
Bit rate                         : 1 264 Kbps
Width                            : 720 pixels
Height                           : 576 pixels
Display aspect ratio             : 2.35:1
Frame rate                       : 25.000 fps
Resolution                       : 8 bits
Colorimetry                      : 4:2:0
Scan type                        : Progressive
Bits/(Pixel*Frame)               : 0.122
Stream size                      : 1.09 GiB (75%)
Writing library                  : x264 core 79


Audio
ID                               : 2
Format                           : AC-3
Format/Info                      : Audio Coding 3
Codec ID                         : A_AC3
Duration                         : 2h 3mn
Bit rate mode                    : Constant
Bit rate                         : 384 Kbps
Channel(s)                       : 6 channels
Channel positions                : Front: L C R, Surround: L R, LFE
Sampling rate                    : 48.0 KHz
Stream size                      : 339 MiB (23%)
Language                         : English

Text #1
Language                         : English

Text #2
Language                         : Dutch

Text #3
Language                         : Arabic

Text #4
Language                         : Danish

Text #5
Language                         : Finnish

Text #6
Language                         : xxxxxx

Text #7
Language                         : Icelandic

Text #8
Language                         : Norwegian

Text #9
Language                         : Swedish

Text #10
Language                         : Russian



